<?xml version="1.0" encoding="UTF-8" standalone="no"?>
<svg
   width="160px"
   height="79px"
   viewBox="0 0 160 79"
   version="1.1"
   id="svg53"
   sodipodi:docname="medexpress.svg"
   inkscape:version="1.1.1 (3bf5ae0d25, 2021-09-20)"
   xmlns:inkscape="http://www.inkscape.org/namespaces/inkscape"
   xmlns:sodipodi="http://sodipodi.sourceforge.net/DTD/sodipodi-0.dtd"
   xmlns="http://www.w3.org/2000/svg"
   xmlns:svg="http://www.w3.org/2000/svg"
   xmlns:rdf="http://www.w3.org/1999/02/22-rdf-syntax-ns#"
   xmlns:cc="http://creativecommons.org/ns#"
   xmlns:dc="http://purl.org/dc/elements/1.1/">
  <defs
     id="defs57" />
  <sodipodi:namedview
     id="namedview55"
     pagecolor="#ffffff"
     bordercolor="#666666"
     borderopacity="1.0"
     inkscape:pageshadow="2"
     inkscape:pageopacity="0.0"
     inkscape:pagecheckerboard="0"
     showgrid="false"
     inkscape:zoom="5.6214989"
     inkscape:cx="71.600121"
     inkscape:cy="32.642539"
     inkscape:window-width="1920"
     inkscape:window-height="1017"
     inkscape:window-x="1912"
     inkscape:window-y="-8"
     inkscape:window-maximized="1"
     inkscape:current-layer="Логотип Медэкспресс" />
  <!-- Generator: Sketch 59.1 (86144) - https://sketch.com -->
  <title
     id="title2">Логотип Медэкспресс</title>
  <desc
     id="desc4">Created with Sketch.</desc>
  <g
     id="Логотип-Медэкспресс"
     stroke="none"
     stroke-width="1"
     fill="none"
     fill-rule="evenodd">
    <polygon
       id="Fill-1"
       fill="#18449A"
       points="0.524 60.143 159.264 60.143 159.264 0.615 0.524 0.615" />
    <path
       d="M45.609,24.543 L39.782,24.321 C38.514,24.323 38.832,23.199 38.947,22.928 L39.799,19.815 C40.853,17.124 37.178,17.591 37.109,17.58 C35.461,17.576 22.316,17.582 22.316,17.582 L21.408,19.98 C21.408,19.98 27.285,19.98 27.365,19.982 C29.042,20.014 28.527,21.076 28.469,21.293 C28.469,21.293 27.532,24.346 27.531,24.355 C26.953,26.167 28.577,26.084 28.659,26.084 C28.659,26.084 33.803,26.096 33.812,26.098 C34.713,26.01 34.725,26.592 34.697,26.759 C34.612,27.208 33.401,30.763 33.401,30.763 C33.282,31.033 33.343,31.864 31.324,31.911 C31.324,31.911 27.376,32.025 27.356,32.023 C26.331,31.948 25.421,32.281 25.015,33.455 C25.001,33.499 23.958,36.198 23.958,36.198 C23.861,36.474 23.603,37.75 22.189,37.776 L16.005,37.782 L14.886,40.436 L30.004,40.472 C33.989,40.436 34.849,37.732 34.858,37.707 L35.848,34.92 C36.306,33.554 37.617,33.574 37.617,33.574 C37.617,33.574 41.558,33.554 43.482,33.554 C45.403,33.554 45.79,31.586 45.79,31.586 C45.79,31.586 46.847,27.643 47.161,26.529 C47.78,24.317 45.635,24.541 45.609,24.543"
       id="Fill-2"
       fill="#FFFFFE" />
    <path
       d="M17.687,30.694 C17.31,31.782 16.372,31.899 15.42,31.899 L8.413,31.899 C7.462,31.899 7.275,31.096 7.618,30.274 L8.637,27.17 C8.979,26.348 9.532,26.081 10.482,26.081 L17.653,26.081 C18.605,26.081 19.091,26.647 18.748,27.468 L17.687,30.694"
       id="Fill-3"
       fill="#FFFFFE" />
    <path
       d="M59.477,29.542 L58.203,32.863 C58.134,33.043 58.036,33.157 57.906,33.204 C57.776,33.255 57.616,33.277 57.424,33.277 L55.762,33.278 C55.496,33.278 55.34,33.245 55.291,33.176 C55.244,33.106 55.247,33.004 55.299,32.865 L58.152,25.427 C58.221,25.247 58.319,25.134 58.448,25.086 C58.575,25.037 58.735,25.011 58.926,25.011 L60.577,25.011 C60.767,25.011 60.898,25.024 60.971,25.044 C61.044,25.064 61.09,25.143 61.112,25.28 L61.782,28.222 C61.789,28.319 61.835,28.368 61.925,28.368 C61.996,28.368 62.074,28.319 62.155,28.222 L65.133,25.258 C65.274,25.123 65.381,25.046 65.452,25.032 C65.524,25.02 65.655,25.011 65.849,25.011 L67.51,25.011 C67.703,25.011 67.844,25.038 67.937,25.086 C68.028,25.134 68.042,25.247 67.972,25.427 L65.12,32.865 C65.066,33.004 64.991,33.106 64.89,33.176 C64.79,33.245 64.607,33.278 64.341,33.278 L62.679,33.278 C62.487,33.278 62.346,33.255 62.254,33.204 C62.161,33.157 62.149,33.043 62.219,32.864 L63.476,29.583 C63.472,29.515 63.457,29.479 63.428,29.479 C63.306,29.535 63.241,29.566 63.236,29.582 L61.698,31.036 C61.581,31.145 61.485,31.226 61.407,31.281 C61.275,31.364 61.128,31.405 60.967,31.405 L60.57,31.413 C60.425,31.413 60.31,31.374 60.225,31.29 C60.188,31.236 60.154,31.153 60.123,31.043 L59.696,29.541 C59.688,29.485 59.648,29.459 59.576,29.459 L59.477,29.542"
       id="Fill-4"
       fill="#FFFFFE" />
    <path
       d="M75.577,25.291 C75.034,25.014 74.264,24.879 73.264,24.879 C71.618,24.879 70.313,25.236 69.347,25.95 C68.706,26.431 68.234,27.07 67.928,27.867 L66.965,30.379 C66.512,31.561 66.807,32.399 67.853,32.892 C68.529,33.193 69.507,33.346 70.786,33.346 C71.184,33.346 71.637,33.33 72.15,33.294 C72.664,33.258 73.187,33.181 73.718,33.057 C73.91,33.016 74.041,32.972 74.112,32.923 C74.181,32.874 74.233,32.81 74.265,32.725 L74.715,31.551 C74.81,31.305 74.659,31.221 74.261,31.303 C73.796,31.404 73.363,31.479 72.964,31.53 C72.563,31.579 72.129,31.604 71.66,31.604 C70.986,31.604 70.499,31.497 70.199,31.281 C69.903,31.067 69.831,30.757 69.986,30.352 L70.185,29.83 C70.201,29.79 70.234,29.751 70.285,29.717 C70.336,29.681 70.411,29.665 70.515,29.665 L74.94,29.665 C75.128,29.665 75.289,29.637 75.42,29.582 C75.551,29.528 75.652,29.412 75.721,29.232 L76.247,27.858 C76.719,26.625 76.495,25.769 75.577,25.291 Z M73.353,27.555 L73.228,27.882 C73.132,27.978 73.041,28.025 72.954,28.025 L71.096,28.025 C70.951,28.025 70.895,27.978 70.932,27.882 L71.058,27.555 C71.194,27.205 71.395,26.942 71.663,26.773 C71.932,26.602 72.257,26.519 72.635,26.519 C73.087,26.519 73.355,26.652 73.441,26.925 C73.492,27.062 73.46,27.272 73.353,27.555 L73.353,27.555 Z"
       id="Fill-5"
       fill="#FFFFFE" />
    <path
       d="M86.405,25.085 C86.313,25.037 86.171,25.011 85.979,25.011 L80.283,25.011 C80.018,25.011 79.836,25.046 79.736,25.114 C79.637,25.181 79.561,25.284 79.509,25.419 L79.33,25.828 C78.951,26.822 78.53,27.73 78.075,28.559 C77.617,29.386 77.106,30.17 76.543,30.914 C76.385,31.137 76.283,31.266 76.238,31.308 C76.035,31.528 75.795,31.637 75.515,31.637 L75.273,31.637 C75.126,31.637 74.997,31.676 74.887,31.752 C74.779,31.826 74.701,31.926 74.653,32.048 L73.696,34.542 C73.629,34.721 73.641,34.83 73.732,34.881 C73.824,34.927 73.965,34.952 74.156,34.952 L75.788,34.952 C75.979,34.952 76.14,34.927 76.268,34.881 C76.396,34.834 76.495,34.723 76.562,34.549 L76.963,33.499 C77.022,33.353 77.164,33.278 77.401,33.278 L81.319,33.278 C81.553,33.278 81.643,33.353 81.586,33.499 L81.184,34.549 C81.139,34.669 81.137,34.766 81.183,34.841 C81.229,34.916 81.382,34.952 81.648,34.952 L83.28,34.952 C83.47,34.952 83.629,34.927 83.76,34.881 C83.887,34.83 83.985,34.721 84.053,34.542 L85.011,32.048 C85.077,31.87 85.066,31.757 84.977,31.709 C84.885,31.662 84.747,31.637 84.557,31.637 L84.339,31.637 C84.151,31.637 84.086,31.563 84.144,31.412 L86.44,25.42 C86.509,25.244 86.498,25.131 86.405,25.085 Z M81.127,31.431 C81.073,31.569 80.959,31.637 80.782,31.637 L79.13,31.637 C79.071,31.637 79.021,31.598 78.979,31.514 C79.315,31.128 79.651,30.743 79.989,30.355 C80.427,29.663 80.899,28.656 81.409,27.328 L81.592,26.85 C81.648,26.74 81.754,26.685 81.908,26.685 L82.692,26.685 C82.861,26.685 82.924,26.74 82.882,26.85 L81.127,31.431 L81.127,31.431 Z"
       id="Fill-6"
       fill="#FFFFFE" />
    <path
       d="M89.864,30.352 L90.029,29.926 C90.069,29.819 90.009,29.763 89.849,29.763 L87.633,29.763 C87.371,29.763 87.218,29.728 87.172,29.651 C87.128,29.578 87.13,29.478 87.178,29.355 L87.53,28.433 C87.598,28.256 87.695,28.143 87.822,28.097 C87.951,28.049 88.11,28.025 88.3,28.025 L90.515,28.025 C90.676,28.025 90.778,27.967 90.824,27.854 L90.88,27.704 C90.99,27.417 90.955,27.182 90.779,26.996 C90.573,26.768 90.185,26.651 89.614,26.651 C89.337,26.651 88.95,26.688 88.455,26.757 C88.177,26.799 87.956,26.819 87.796,26.819 C87.633,26.819 87.539,26.793 87.507,26.737 C87.478,26.681 87.48,26.612 87.509,26.53 L87.931,25.435 C88,25.257 88.142,25.134 88.359,25.064 C88.746,24.939 89.467,24.879 90.522,24.879 C92.315,24.879 93.436,25.195 93.884,25.826 C94.2,26.266 94.191,26.919 93.86,27.782 L92.882,30.337 C92.549,31.202 92.131,31.834 91.625,32.234 C90.68,32.975 89.23,33.346 87.277,33.346 C86.219,33.346 85.544,33.289 85.249,33.179 C85.084,33.109 85.036,32.984 85.106,32.803 L85.529,31.696 C85.605,31.502 85.774,31.405 86.037,31.405 C86.273,31.438 86.517,31.471 86.767,31.505 L87.716,31.604 C88.433,31.604 88.975,31.451 89.343,31.14 C89.556,30.964 89.732,30.701 89.864,30.352"
       id="Fill-7"
       fill="#FFFFFE" />
    <path
       d="M94.804,33.278 L93.032,33.278 C92.766,33.278 92.608,33.245 92.563,33.176 C92.514,33.106 92.517,33.003 92.572,32.865 L95.422,25.427 C95.492,25.247 95.589,25.133 95.718,25.086 C95.849,25.037 96.008,25.011 96.202,25.011 L97.971,25.011 C98.164,25.011 98.304,25.038 98.398,25.086 C98.491,25.133 98.502,25.244 98.435,25.423 L97.473,27.927 C97.434,28.037 97.499,28.093 97.675,28.093 L97.897,28.093 C98.159,28.093 98.379,28.026 98.553,27.896 C98.728,27.767 98.856,27.591 98.94,27.372 L99.311,26.408 C99.484,25.957 99.803,25.611 100.27,25.371 C100.733,25.132 101.289,25.011 101.934,25.011 L103.099,25.011 C103.288,25.011 103.428,25.038 103.521,25.085 C103.614,25.131 103.624,25.244 103.559,25.419 L103.299,26.091 C103.258,26.201 103.187,26.282 103.087,26.336 C102.986,26.39 102.856,26.418 102.696,26.418 L102.521,26.418 C102.289,26.418 102.133,26.528 102.047,26.75 L101.665,27.744 C101.606,27.897 101.525,28.045 101.416,28.189 C101.308,28.334 101.173,28.462 101.01,28.574 C100.941,28.602 100.838,28.643 100.705,28.698 C100.572,28.754 100.498,28.802 100.481,28.844 C100.814,28.967 101.082,29.144 101.286,29.371 C101.489,29.598 101.515,29.914 101.362,30.316 L100.385,32.863 C100.315,33.043 100.215,33.157 100.087,33.206 C99.957,33.254 99.797,33.277 99.605,33.277 L97.834,33.278 C97.64,33.278 97.5,33.255 97.407,33.204 C97.315,33.157 97.305,33.041 97.374,32.86 L98.205,30.691 C98.338,30.343 98.341,30.095 98.209,29.95 C98.079,29.806 97.853,29.73 97.538,29.73 L97.041,29.73 C96.94,29.73 96.864,29.75 96.817,29.785 C96.767,29.819 96.733,29.857 96.718,29.897 L95.581,32.86 C95.513,33.041 95.413,33.157 95.283,33.204 C95.154,33.255 94.995,33.278 94.804,33.278"
       id="Fill-8"
       fill="#FFFFFE" />
    <path
       d="M106.121,28.034 L105.282,30.223 C105.144,30.582 105.113,30.852 105.191,31.029 C105.331,31.347 105.751,31.504 106.452,31.504 L107.467,31.423 C107.575,31.408 107.714,31.39 107.881,31.368 C108.05,31.349 108.177,31.337 108.265,31.337 C108.424,31.337 108.52,31.366 108.552,31.419 C108.581,31.475 108.58,31.542 108.547,31.624 L108.094,32.813 C108.025,32.991 107.882,33.114 107.665,33.183 C107.287,33.29 106.57,33.346 105.514,33.346 C103.564,33.346 102.401,32.975 102.026,32.234 C101.827,31.833 101.895,31.202 102.226,30.337 L103.205,27.782 C103.537,26.919 104.022,26.265 104.659,25.826 C105.591,25.194 106.958,24.879 108.759,24.879 C109.815,24.879 110.487,24.939 110.776,25.064 C110.941,25.134 110.989,25.257 110.921,25.435 L110.463,26.63 C110.388,26.823 110.22,26.919 109.957,26.919 C109.709,26.919 109.426,26.892 109.104,26.835 C108.782,26.782 108.506,26.752 108.274,26.752 C107.601,26.752 107.08,26.896 106.706,27.187 C106.464,27.367 106.269,27.648 106.121,28.034"
       id="Fill-9"
       fill="#FFFFFE" />
    <path
       d="M114.052,26.886 L111.759,32.865 C111.69,33.044 111.591,33.157 111.462,33.206 C111.332,33.255 111.173,33.277 110.98,33.277 L109.21,33.278 C108.944,33.278 108.787,33.245 108.741,33.176 C108.694,33.106 108.695,33.004 108.748,32.865 L111.6,25.427 C111.67,25.247 111.768,25.134 111.898,25.086 C112.026,25.038 112.186,25.011 112.378,25.011 L119.171,25.011 C119.36,25.011 119.501,25.038 119.594,25.086 C119.686,25.134 119.698,25.247 119.628,25.427 L116.776,32.865 C116.707,33.044 116.608,33.157 116.481,33.206 C116.351,33.255 116.19,33.277 116,33.277 L114.225,33.278 C114.034,33.278 113.893,33.255 113.802,33.206 C113.708,33.157 113.698,33.044 113.766,32.865 L116.06,26.886 C116.102,26.774 116.057,26.72 115.926,26.72 L114.313,26.72 C114.239,26.72 114.182,26.736 114.139,26.771 C114.098,26.806 114.069,26.845 114.052,26.886"
       id="Fill-10"
       fill="#FFFFFE" />
    <path
       d="M128.592,25.909 C128.411,25.223 127.705,24.879 126.467,24.879 C125.979,24.879 125.543,24.934 125.154,25.044 C124.765,25.154 124.434,25.278 124.16,25.414 C124.031,25.401 123.978,25.368 123.999,25.313 L124.039,25.213 C124.09,25.081 123.983,25.013 123.721,25.013 L121.72,25.013 C121.529,25.013 121.371,25.038 121.242,25.086 C121.113,25.134 121.015,25.247 120.948,25.423 L117.297,34.944 C117.245,35.08 117.243,35.182 117.288,35.25 C117.336,35.319 117.495,35.352 117.759,35.352 L119.531,35.352 C119.722,35.352 119.881,35.328 120.012,35.282 C120.14,35.235 120.241,35.121 120.308,34.945 L121.036,33.047 C121.044,33.019 121.096,32.985 121.187,32.944 C121.421,33.05 121.663,33.152 121.906,33.245 C122.188,33.313 122.578,33.346 123.079,33.346 C124.311,33.346 125.291,33.032 126.017,32.4 C126.489,31.975 126.868,31.39 127.15,30.648 L128.297,27.659 C128.592,26.892 128.689,26.307 128.592,25.909 Z M125.249,27.659 L124.122,30.6 C124.029,30.846 123.9,31.048 123.741,31.198 C123.468,31.447 123.114,31.571 122.675,31.571 C122.236,31.571 121.976,31.447 121.898,31.198 C121.852,31.048 121.877,30.846 121.973,30.6 L123.1,27.659 C123.195,27.411 123.322,27.211 123.484,27.058 C123.755,26.811 124.108,26.685 124.549,26.685 C124.986,26.685 125.245,26.811 125.328,27.058 C125.372,27.211 125.347,27.411 125.249,27.659 L125.249,27.659 Z"
       id="Fill-11"
       fill="#FFFFFE" />
    <path
       d="M136.74,25.291 C136.198,25.014 135.426,24.879 134.427,24.879 C132.781,24.879 131.474,25.236 130.51,25.95 C129.869,26.431 129.396,27.07 129.09,27.867 L128.127,30.379 C127.676,31.561 127.971,32.399 129.015,32.892 C129.692,33.193 130.672,33.346 131.95,33.346 C132.346,33.346 132.801,33.33 133.314,33.294 C133.826,33.258 134.35,33.181 134.882,33.057 C135.073,33.016 135.205,32.972 135.275,32.923 C135.346,32.874 135.395,32.81 135.426,32.725 L135.878,31.551 C135.971,31.305 135.821,31.221 135.422,31.303 C134.957,31.404 134.527,31.479 134.126,31.53 C133.727,31.579 133.292,31.604 132.822,31.604 C132.146,31.604 131.661,31.497 131.365,31.281 C131.065,31.067 130.994,30.757 131.148,30.352 L131.35,29.83 C131.365,29.79 131.397,29.751 131.446,29.717 C131.498,29.681 131.573,29.665 131.677,29.665 L136.1,29.665 C136.291,29.665 136.452,29.637 136.583,29.582 C136.716,29.528 136.815,29.412 136.883,29.232 L137.41,27.858 C137.881,26.625 137.658,25.769 136.74,25.291 Z M134.514,27.555 L134.389,27.882 C134.294,27.978 134.204,28.025 134.116,28.025 L132.259,28.025 C132.114,28.025 132.059,27.978 132.095,27.882 L132.221,27.555 C132.356,27.205 132.557,26.942 132.827,26.773 C133.095,26.602 133.42,26.519 133.798,26.519 C134.249,26.519 134.517,26.652 134.603,26.925 C134.654,27.062 134.623,27.272 134.514,27.555 L134.514,27.555 Z"
       id="Fill-12"
       fill="#FFFFFE" />
    <path
       d="M141.451,28.034 L140.613,30.223 C140.475,30.582 140.444,30.852 140.521,31.029 C140.663,31.347 141.083,31.504 141.783,31.504 L142.799,31.423 C142.906,31.408 143.044,31.39 143.212,31.368 C143.38,31.349 143.509,31.337 143.597,31.337 C143.756,31.337 143.851,31.366 143.882,31.419 C143.912,31.475 143.912,31.542 143.879,31.624 L143.424,32.813 C143.357,32.991 143.215,33.114 142.996,33.183 C142.618,33.29 141.899,33.346 140.845,33.346 C138.896,33.346 137.733,32.975 137.361,32.234 C137.161,31.833 137.226,31.202 137.558,30.337 L138.536,27.782 C138.869,26.919 139.353,26.265 139.993,25.826 C140.922,25.194 142.289,24.879 144.091,24.879 C145.147,24.879 145.82,24.939 146.109,25.064 C146.274,25.134 146.322,25.257 146.253,25.435 L145.793,26.63 C145.72,26.823 145.552,26.919 145.289,26.919 C145.041,26.919 144.757,26.892 144.435,26.835 C144.116,26.782 143.838,26.752 143.605,26.752 C142.934,26.752 142.413,26.896 142.038,27.187 C141.796,27.367 141.598,27.648 141.451,28.034"
       id="Fill-13"
       fill="#FFFFFE" />
    <path
       d="M148.834,28.034 L147.994,30.223 C147.859,30.582 147.828,30.852 147.906,31.029 C148.046,31.347 148.466,31.504 149.166,31.504 L150.184,31.423 C150.289,31.408 150.429,31.39 150.595,31.368 C150.764,31.349 150.893,31.337 150.979,31.337 C151.14,31.337 151.236,31.366 151.266,31.419 C151.294,31.475 151.294,31.542 151.264,31.624 L150.808,32.813 C150.74,32.991 150.598,33.114 150.382,33.183 C150.002,33.29 149.283,33.346 148.23,33.346 C146.281,33.346 145.118,32.975 144.742,32.234 C144.544,31.833 144.611,31.202 144.941,30.337 L145.922,27.782 C146.253,26.919 146.737,26.265 147.375,25.826 C148.305,25.194 149.672,24.879 151.476,24.879 C152.53,24.879 153.203,24.939 153.492,25.064 C153.657,25.134 153.705,25.257 153.637,25.435 L153.177,26.63 C153.105,26.823 152.935,26.919 152.673,26.919 C152.426,26.919 152.141,26.892 151.82,26.835 C151.498,26.782 151.22,26.752 150.988,26.752 C150.317,26.752 149.795,26.896 149.425,27.187 C149.178,27.367 148.984,27.648 148.834,28.034"
       id="Fill-14"
       fill="#FFFFFE" />
  </g>
  <metadata
     id="metadata874">
    <rdf:RDF>
      <cc:Work
         rdf:about="">
        <dc:title>Логотип Медэкспресс</dc:title>
      </cc:Work>
    </rdf:RDF>
  </metadata>
</svg>
